<svg xmlns="http://www.w3.org/2000/svg" version="1.1" xmlns:xlink="http://www.w3.org/1999/xlink" width="512" height="512"><svg id="SvgjsSvg1010" data-name="Layer 2" xmlns="http://www.w3.org/2000/svg" viewBox="0 0 512 512">
  <defs>
    <style>
      .cls-1 {
        fill: #fff;
      }

      .cls-1, .cls-2 {
        stroke: #fff;
        stroke-miterlimit: 10;
      }

      .cls-2 {
        fill: #01003d;
      }
    </style>
  </defs>
  <circle class="cls-2" cx="256" cy="256" r="244.68" transform="translate(-106.04 256) rotate(-45)"></circle>
  <path class="cls-1" d="M452.31,297.44c.7,2.21.59,4.96.25,7.13l-.04.14c-.21.7-.58,1.17-1.12,1.65-2.97,2.5-13.2,10.77-16.51,13.52-1.91,1.17-.85,3.31-.09,5.19.84,2.33,2.2,4.71,2.45,7.19.23,3.46-1.46,7.09-4.94,8.27-2.76,1.11-3.1,4.3-5.05,6.17-1.63,1.6-4.36,2.12-5.92,3.68-1.87,2.02-3.14,5.49-1.99,8.01.91,2.17,3.42,3.86,3.86,6.11-.07.33-.34.52-.69.63-1.43.5-5.67.48-7.56.96-2.9.74.1,3.94-.49,5.82-.24,1.64-2.35,3.08-4.11,4.43-1.11.82-2.32,1.48-3.64,1.89-2.33.74-5.04.76-4.71,2.94.32,1.74,1.48,3.48,1.91,5.13.46,1.49-.29,2.52-1.31,3.46-1.9,1.8-5.45,4.97-7.35,6.78-.61.64-1.25,1.27-1.4,2.15-.66,1.49,2.28,5.48.57,6.21-2.03.24-4.4-.69-6.46-.99-2.43-.46-2.8-.1-4.84,1-7.27,3.91-19.13,10.32-25.26,13.62-1.46.75-2.48,1.57-4.01,1.76-1.98.08-4.93-.48-7.52-1.48-1.76-.66-3.17-2.27-5.21-1.66-3.74,1.51-7.43,4.85-11.21,6.44-2.65.97-6.04-1.39-9.09-1.01-2.79.21-6,.94-8.85,1.31-2.71.58-4.31-.13-6.58-1.56-2.04-1.11-4.34-2.95-6.49-3.58-3.22-.48-7.01,1.35-10.28,1.9-2.45.57-3.8.77-6.09-.7-.65-.38-1.29-.72-1.98-1.13-2.66-1.57-6.46-3.47-8.75-5.22-.65-.63-.76-1.36-.58-2.58.25-1.67.74-3.58,1.08-5.31.65-3.21,1.1-5.7,2.76-8.21,2.15-4.06,5.72-7.1,5.54-12.03.19-4.33.43-9.24.63-13.64.12-2.44.09-3.3-1.72-4.29-1.88-.97-4.27-2.11-6.18-2.9-4.3-1.54,1.09,4.46-3.72,4.31-3.84-.13-8.78.41-12.44-.28-5.62-1.68-26.47-8.42-34.36-10.86-.86-.26-1.5-.52-2.04-.53-1.57.13-2.53,1.63-4.12,1.96-2.02.76-5.12.45-7.07,1.11-1.82.49-2.81,2.25-4,3.51-2.36,2.28-5.82-2.29-8.09-3.22-2.78-1.73-5.6-1.04-6.59,1.55-.48.92-.25,2.01-1.51,1.88-2.67-.89-5.98-3.2-8.72-4.33-.23-.08-.45-.14-.64-.16-2.09-.3-1.61,2.9-2.68,2.84-1.15-.2-2.09-.74-3.3-1.16-11.29-4.8-40.29-14.86-45.95-18.23-2.23-5.65-6.37-19.32-8.15-24.26-.4-1.32-.52-2.19-.25-3.65.46-2.49,1.02-5.46,1.51-8.02.4-2.16.35-3.38-.74-4.84-.92-1.25-2.18-2.45-3.11-3.68-.67-.91-.96-1.61-.32-2.35.64-.6,1.44-1.06,1.94-1.83,1.13-1.63,1.17-4.46.9-6.15-.28-1.03-1.3-.5-3.24.36-4.33,1.91-12.46,5.54-15.49,6.85-.57.22-.99.41-1.51.36-.73-.17-1.05-1.02-1.39-1.69-1.27-2.81-4.22-9.44-5.65-12.69-.46-1.08-.77-2.27-.38-3.31.95-2.24,2.58-4.3,2.46-6.9.34-4.54.39-11.38.69-15.2.98-8.07,2.41-16.85,3.54-25.04.37-2.63.4-3.07,2.25-5.15,1.35-1.53,2.8-3.13,4.18-4.66,3.95-4.26,4.29-4.57-1.93-5.63-1.72-.34-3.5-.12-4.84,1.1-2.03,1.57-3.94,4.75-6.88,3.61-1.91-.76-3.81-1.87-5.95-1.84-2.21-.09-5.41.44-6.87.13-.92-.14-1.39-.97-1.48-1.88-.37-3.01-.61-6.72-.91-9.8-.05-2.38-.79-3.76.46-5.15,1.49-1.31,5.81-.98,5.27-3.14-.96-2.46-3.14-5.93-4.6-8.63-.87-1.66-2-3.07-3.69-3.91-2.62-1.69-7.22-3.02-9.08-5.48-2.38-5.15-4.48-11.49-6.34-16.74-1.21-4.78-4.13-8.92-3.08-14.06.55-3.44.8-7.78,1.83-10.9.24.02-.06,2.99-.17,4.71-.04.98.12,1.86.88,2.52,4.76,4.25,15.42,13.4,21.76,18.97,2.47,2.03,3.41,3.3,6.19,4.77,2.9,1.66,6.07,3.23,8.85,5,2.87,2,7.47,5.44,10.51,7.66,3.77,2.86,9.04,4.92,13.36,7.24,4.28,1.85,7.4,7.44,10.41,10.56.82.94,1.3,1.34,1.84,1.4,5.77-1.14,33.52-8.47,40.43-10.16,1.8-.33,1.85-1.7,2.3-3.57.56-6.11,8.33-5.39,11.68-8.73,1.27-1.54.69-4.79,1.04-6.97.2-1.52.68-2.8,1.25-4.29,1.31-3.58,2.97-7.45,4.1-11.09.68-2.49-.6-4.85-.52-7.04.95-4.8,3.53-10.1,5.08-14.94,1.16-3.12,2.45-6,2.37-8.9.06-1.97-.27-4.42,1.28-5.86.85-.71,1.91-1.12,2.76-1.88,2.17-2.04,3.53-5.22,6.6-6.2,2.85-.91,2.99-3.79,3.18-6.32.25-1.82,1.27-3.18,2.92-4.79,1.76-1.84,3.87-4.01,6.51-4.09,1.44-.05,2.86-.05,4.22-.65,3.6-1.55,13.35-5.9,17.26-7.61,1.59-.81,2.73-.98,4.35-.43,3.14.95,11.73,3.63,15.53,4.79,1.74.52,2.97.89,4.72.92,2.88.15,10.31.5,14.1.68,1.77.08,2.79.05,4.12-.52,1.25-.51,2.93-1.55,4.39-2.33,1.6-.88,2.71-1.33,4.06-.22,3.44,2.78,14.73,12.1,18.33,15.04.71.53,1.29,1.13,2.13,1.31,7.34.94,27.39,1.27,34.37,2.63.55.53.79,1.27,1.06,2.04.98,2.79,2.98,9.19,3.92,11.65.36,1.39,1.62,1.62,2.82,1.26,2.97-.56,7.09-2.6,10.22-2.7,6.81,1.55,21.07,6.47,26.61,7.97,1.66.44,2.17,1.98,2.77,3.48.3.66.7,1.17,1.24,1.23,1.23.2,2.63-2.19,4.26-2.31,2.64.06,4.88,2.48,7.19,3.67,3.09,1.65,3.59,3.69,4.24,6.71.67,2.99,1.45,6.06,2.07,8.91,1.19,5.52,6.2,27.89,8.47,38.27.39,2.03.88,2.64-.24,3.95-.83.98-1.83,1.8-2.7,2.78-2.7,2.54-1.8,6.52-3.69,9.46-1.54,2.5-4.59,4.56-1.98,6.61,5.14,3.54,11.4,7.59,16.12,12.1,2.01,1.96,4.38,4.46,6.5,6.36,2.7,2.46,5.51-2.06,9.02-2.26,1.41-.2,2.42.05,2.45,1.09-.12,1.52-2.73,4.21-3.39,6.12-.44,1.45-.07,2.41.63,4.28,1.1,3.42,3.15,7.24,3.76,10.68-.21,4.84-3.14,10.41-3.26,15.2.05,2.08.53,4.46.77,6.61.15,2.14.67,4.51,2.41,5.05,1.49.6,3.27.74,4.77,1.19,2.22.66,1.28,1.73.14,3.4-1.74,2.55-4.15,5.25-5.55,8.01-.77,2.21,1.46,3.46,2.26,6.12Z"></path>
</svg><style>@media (prefers-color-scheme: light) { :root { filter: none; } }
@media (prefers-color-scheme: dark) { :root { filter: none; } }
</style></svg>