<?xml version="1.0" encoding="UTF-8"?>
<svg id="del" xmlns="http://www.w3.org/2000/svg" viewBox="0 0 5000 5000">
  <defs>
    <style>
      .cls-1 {
        fill: #fff;
      }
    </style>
  </defs>
  <g>
    <polygon class="cls-1" points="5000 5000 4980.08 5000 4980.08 4999 4999 4999 4999 4980.08 5000 4980.08 5000 5000"/>
    <polygon class="cls-1" points="19.92 5000 0 5000 0 4980.08 1 4980.08 1 4999 19.92 4999 19.92 5000"/>
    <polygon class="cls-1" points="5000 19.92 4999 19.92 4999 1 4980.08 1 4980.08 0 5000 0 5000 19.92"/>
    <polygon class="cls-1" points="1 19.92 0 19.92 0 0 19.92 0 19.92 1 1 1 1 19.92"/>
  </g>
  <path class="cls-1" d="M465.35,2719.38l2034.65,2039.54,2034.65-2039.54c81.85-82.05,23.74-222.1-92.15-222.1h-944.56V241.07h-1995.88v2256.21h-944.56c-115.89,0-174,140.05-92.15,222.1Z"/>
</svg>