<?xml version="1.0" encoding="UTF-8"?>
<svg id="Layer_1" xmlns="http://www.w3.org/2000/svg" version="1.1" viewBox="0 0 512 512">
  <!-- Generator: Adobe Illustrator 29.8.2, SVG Export Plug-In . SVG Version: 2.1.1 Build 3)  -->
  <defs>
    <style>
      .st0 {
        stroke-width: .75px;
      }

      .st0, .st1, .st2, .st3, .st4, .st5, .st6, .st7, .st8, .st9, .st10, .st11, .st12 {
        stroke: #000;
        stroke-miterlimit: 10;
      }

      .st0, .st5, .st7, .st8, .st10, .st11 {
        fill: none;
      }

      .st1, .st2, .st9 {
        fill: #fff;
      }

      .st1, .st3 {
        stroke-width: 1.13px;
      }

      .st5 {
        stroke-width: .45px;
      }

      .st6, .st10 {
        stroke-width: 1.29px;
      }

      .st7 {
        opacity: .5;
      }

      .st7, .st8 {
        stroke-width: 1.57px;
      }

      .st7, .st11 {
        isolation: isolate;
      }

      .st9, .st12 {
        stroke-width: 1.25px;
      }

      .st11 {
        opacity: .33;
        stroke-width: 1.52px;
      }
    </style>
  </defs>
  <g id="Layer_4">
    <path class="st9" d="M358.21,376.11s-93.74-12.83-193.07-56.9C65.81,275.14,25.93,214.28,25.93,214.28c-2.94,16.37-2.7,29.03-2.7,35.45,0,128.06,103.96,231.88,232.2,231.88,80.83,0,152-41.26,193.59-103.82-27.44,3.55-90.81-1.68-90.81-1.68h0Z"/>
    <path class="st12" d="M255.43,17.85c-126.61-.06-213.61,108.07-229.5,196.43,0,0,39.88,60.86,139.21,104.93,99.33,44.07,193.07,56.9,193.07,56.9,0,0,63.38,5.23,90.81,1.68,24.39-36.7,38.61-80.72,38.61-128.06,0-129.91-109.33-231.83-232.2-231.88h0Z"/>
    <path class="st2" d="M475.25,268.89c-1.88,1.02-22.1,17.27-22.1,17.27l-22.8,18.2-5.1,22.42,14.14-2.3,22.09,7.66,6.9,10.14s33.96-88.06,6.86-73.39h0Z"/>
    <path class="st4" d="M435.5,301.44c-1.74,10.24-1.6,18,7.57,18s13.75-20.87,13.75-30.04-20.96,9.89-21.32,12.05h0Z"/>
    <path class="st9" d="M234.32,251.71l11.18,44.43,25.65,17.95,42.43-17.95,40.62,5.78s4.6-.16,10.2,6.91,8.55,9.87,8.55,9.87l17.1-32.73-20.78-48.9s-21.43-15.95-88.53-27.14c0,0,3.29-7.02-46.43,41.77h.01Z"/>
    <path class="st3" d="M348.6,273.75c-2.19,10.49-2.02,18.44,9.53,18.44s16.57-13.64,16.57-23.04-1.33-14.72-12.83-13.84c-7.02.54-12.8,16.23-13.27,18.44h0Z"/>
    <path class="st1" d="M353.52,291.24c5.26,1.07,14.89,2.5,21.17-16.34,0,0,5.14-16.41-6.62-18.15,0,0,4.11,9.33.49,19.24s-8.38,9.82-15.04,15.25Z"/>
    <path class="st2" d="M439.86,318.14c.6.15,8.73,7.98,15.03-15.23,0,0,4.84-22.24-1.67-17.29-.96.73-.82,1.77-.78,2.28.13,2.11.15,7.48-2.05,14.88-2.88,9.67-5.22,10.06-10.52,15.36h-.01Z"/>
    <path class="st8" d="M-176.18,505.07c-1.25,2.34-2.61,4.65-4.08,6.93"/>
    <path class="st7" d="M233.85,371.1c47.89,30.76,75.82,65.96,84.85,100.27"/>
    <path class="st11" d="M45.96,349.25c30.88-28.91,88.7-28.43,147.44-.7"/>
    <path class="st0" d="M216.56,414.81c22.7,14.58,35.93,31.26,40.21,47.52"/>
    <path class="st0" d="M127.54,404.47c14.97-13.65,43.68-12.7,73.18,1.47"/>
    <path class="st5" d="M187.93,446.43c13.63,8.76,21.58,18.78,24.15,28.54"/>
    <path class="st5" d="M134.45,440.22c8.99-8.2,26.24-7.63,43.96.88"/>
    <path class="st6" d="M480.64,267.55l-3.47,31.48,11.73,3.66,16.94-28.28c.99-31.08-6.08-52.01-6.08-52.01l-20.47-9.11c-.75-.33-1.63-.2-2.24.35l-33.53,30.13-13.05-4.4c-.59-.2-1.05-.65-1.25-1.24l-3.07-6.7-25.76-47.9c-.09-.16-.21-.29-.37-.37-4.2-2.34-64.1-35.3-126.76-48.68-.26-.05-.53,0-.74.14-5.12,3.46-66.12,44.86-72.12,56.97-.08.17-.11.35-.08.54l3.62,29.45c.03.22.13.42.28.57l29.45,28.92c.37.36.95.37,1.33.02,14.68-13.72,29.35-27.44,44.03-41.16.22-.21.52-.3.82-.24,12.51,2.31,30.08,5.87,48.52,10.74,7.66,2.02,15.56,4.3,25.16,8.52,6.23,2.74,11.25,5.46,14.77,7.49.18.1.31.26.39.44,7.07,16.25,14.15,32.5,21.22,48.75.1.23.28.41.51.5l39.5,16.5c.32.13.69.08.97-.13l43.96-33.33s2.83-1.08,5.8-1.6"/>
    <path class="st10" d="M368.55,236.58l5.15-14.17-5.15,14.17Z"/>
    <line class="st10" x1="279.89" y1="209.59" x2="279.11" y2="193.49"/>
    <path class="st10" d="M234.47,251.79l-2.5-21.08-31.54-37.07,31.38,37.34,46.31-36.64c.56-.44,1.29-.58,1.97-.37l91.79,27.86c1.42.43,2.58,1.47,3.16,2.84l28.52,67.3"/>
    <path class="st10" d="M390.05,285.98l-17.1,32.73-15.36-16.2-31.14-4.52-48.86,20.72-6.44-4.6-25.65-17.95c-3.73-14.81-7.46-29.62-11.18-44.43"/>
    <polyline class="st10" points="271.15 314.1 313.58 296.15 326.45 297.98"/>
    <path class="st10" d="M372.95,318.7l7.71,6.96c.5.45,1.28.3,1.59-.29l18.03-35.13"/>
    <path class="st10" d="M425.25,326.78l14.14-2.3,7.47,2.59-21.13,3.35c-.63.1-1.16-.46-1.02-1.08,1.3-5.85,6.53-29.5,5.72-26.55"/>
    <line class="st10" x1="446.87" y1="327.07" x2="461.48" y2="332.14"/>
    <path class="st6" d="M422.68,224.59l13.56,6.35c1.16.54,2.53.36,3.5-.47l22.32-18.99c.69-.58,1.59-.84,2.48-.69l13.29,2.18-32.02,29.46c-1.41,1.3-3.43,1.69-5.22,1.03l-11.33-4.18-6.58-14.03"/>
    <path class="st6" d="M481.49,267.84l10.24,3.43c.32.11.53.4.51.74-.22,4.42-1.82,33.66-4.87,30.21l-10.42-3.22c-.35-.11-.57-.45-.52-.81l4.08-29.74c.06-.46.53-.75.98-.61Z"/>
  </g>
</svg>