<?xml version="1.0" encoding="UTF-8"?>
<svg id="Layer_1" data-name="Layer 1" xmlns="http://www.w3.org/2000/svg" viewBox="0 0 586.7 399.52">
  <defs>
    <style>
      .cls-1 {
        fill: #231f20;
        stroke: #231f20;
        stroke-miterlimit: 10;
      }
    </style>
  </defs>
  <path class="cls-1" d="M283.13,318.34c-1.68,9.46-3.72,18.99-3.1,28.58.61,9.59,4.29,19.48,11.96,25.17,9.3,6.91,22.36,6.38,32.09,12.64,2.9,1.86,5.41,4.27,8.12,6.4,8.87,6.96,21.55,10.76,31.38,5.25,6.47-3.62,10.56-10.58,16.97-14.31,4.42-2.57,9.59-3.41,14.39-5.17,14.88-5.47,25.63-20.81,25.8-36.79.06-5.43-.99-10.81-2.03-16.14-4.47-23.03-8.77-46.13-10.93-69.5-.62-6.67-1.09-13.51-3.69-19.67-5.66-13.43-19.96-20.77-33.64-25.5-10.77-3.72-22.26-6.54-33.48-4.57-11.36,2-21.45,8.8-29.43,17.21-6,6.31-11.23,13.59-15.7,21.08-3.82,6.39-2.46,12.21-2.73,19.53-.69,18.71-2.68,37.37-5.96,55.79Z"/>
  <path class="cls-1" d="M399.38,237.55c15.19,8.76,33.65,11.99,51.75,13.71,18.09,1.72,35.97,2.58,53.6,6.51.71,7.24-5.03,14.07-12.34,17.56-7.3,3.48-15.89,4.21-24.2,4.35-13.23.23-26.61-.85-39.16-4.51-12.55-3.66-24.26-10.03-32.44-19.12"/>
  <path class="cls-1" d="M315.23,206.07l14.69-80.44c.6-2.76-.38-5.63-2.58-7.53l-52.75-45.63c-1.28-1.11-10.3-7.89-10.68-9.5l-5.27-51.27c-.89-3.78-4.51-6.41-8.56-6.23h0c-4.73.21-8.3,4.12-7.85,8.62,1.72,17.45,5.9,56.81,8.79,60.13,3.72,4.27,62.17,42.19,58.3,56.23-3.87,14.04-3.51,29.76-7.56,35.48-2.76,3.91-13.86,27.55-16.97,29.54-1.5.96-5.69,3.62-7.5,3.53-11.89-.61-59.51,6.43-62.28,2.18-3.17-4.85-21.17-88.93-29.1-95.8-6.75-5.84-62.88-30.76-79.51-38.08-2.98-1.31-6.47-.86-8.91,1.19-4.56,3.82-3.62,4.78,1.62,8.96,7.9,6.31,68.35,30.41,75.31,40.64,6.96,10.23,16.16,98.17,34.28,100.14,15.53,1.69,67.73,1.71,83.05,5.24l23.48-17.41Z"/>
  <path class="cls-1" d="M379.95,205.56l-22.76-78.92c-.88-2.7-.19-5.64,1.81-7.71l47.92-49.72c1.16-1.21,9.46-8.7,9.67-10.32l.07-51.48c.51-3.84,3.84-6.75,7.89-6.9h0c4.73-.17,8.68,3.43,8.69,7.95.05,17.52-.13,57.05-2.67,60.59-3.27,4.56-57.65,47.05-52.38,60.72,5.28,13.67,6.51,29.35,11.11,34.72,3.15,3.67,16.58,26.31,19.88,28.05,1.59.83,6.03,3.14,7.82,2.91,11.78-1.57,59.91,1.58,62.25-2.87,2.67-5.09,12.09-90.28,19.3-97.76,6.13-6.36,59.51-35.72,75.33-44.36,2.83-1.55,6.35-1.38,9,.47,4.93,3.44,4.09,4.46-.7,9.05-7.23,6.92-65,35.82-70.89,46.57-5.89,10.75-6.17,99.08-24.02,102.51-15.29,2.94-67.28,7.19-82.18,11.94l-25.14-15.43Z"/>
  <path class="cls-1" d="M306.74,236.21c-16.15,9.31-35.78,12.75-55.02,14.58-19.24,1.83-38.24,2.75-56.99,6.92-.76,7.7,5.35,14.96,13.12,18.67,7.76,3.7,16.89,4.47,25.73,4.63,14.06.25,28.29-.9,41.63-4.8,13.34-3.89,25.8-10.66,34.49-20.33"/>
  <rect class="cls-1" x="290.54" y="207.09" width="33.36" height="27.8" transform="translate(316.23 -157.35) rotate(55.64)"/>
  <rect class="cls-1" x="370.73" y="207.09" width="33.36" height="27.8" transform="translate(788.51 25.94) rotate(124.36)"/>
</svg>