<?xml version="1.0" encoding="UTF-8"?>
<svg id="Layer_1" data-name="Layer 1" xmlns="http://www.w3.org/2000/svg" viewBox="0 0 472.55 418.95">
  <defs>
    <style>
      .cls-1 {
        stroke: #000;
        stroke-miterlimit: 10;
      }
    </style>
  </defs>
  <path class="cls-1" d="M137.98,247.36S-1.15,385.79,7.06,398.37c14.65-3,191.23-132.31,130.92-151.01Z"/>
  <path class="cls-1" d="M148.19,148.03C-18.04-35.61,47.52-7.8,177.74,120.8"/>
  <path class="cls-1" d="M281.99,116.02S405.75-.59,422.72.51c16.97,1.09-111.49,147.52-111.49,147.52"/>
  <path class="cls-1" d="M111.6,402.65c16.12-50.78-16-74.6-45.43-111.09-36.81-63.25-18.74-151.28,25.38-208.13,7.98-17.05,76.85-65.13,52.17-68.5C-30.27,71.07-50.97,315.55,110.5,405.38"/>
  <path class="cls-1" d="M471.72,417.77c-8.21,12.59-174.95-153.17-174.95-153.17l35.3-32.02s147.86,172.6,139.65,185.19"/>
  <path class="cls-1" d="M233.27,97.11c-59.1,0-107.01,47.21-107.01,105.44s47.91,105.44,107.01,105.44,107.01-47.21,107.01-105.44-47.91-105.44-107.01-105.44ZM233.27,290.18c-48.4,0-87.63-39.23-87.63-87.63s39.23-87.63,87.63-87.63,87.63,39.23,87.63,87.63-39.23,87.63-87.63,87.63Z"/>
  <path class="cls-1" d="M354.94,395.04c-16.12-50.78,16-74.6,45.43-111.09,36.81-63.25,18.74-151.28-25.38-208.13-7.98-17.05-76.85-65.13-52.17-68.5,173.99,56.14,194.69,300.62,33.22,390.46"/>
</svg>